<svg preserveAspectRatio="none" width="100%" height="100%" overflow="visible" style="display: block;" viewBox="0 0 44 44" fill="none" xmlns="http://www.w3.org/2000/svg">
<g id="gYoAsCKXdkDg7dbQ7ETRorhhA0.svg" clip-path="url(#clip0_0_47)">
<path id="Vector" d="M0 0H44V44H0V0Z" fill="var(--fill-0, black)"/>
<path id="Vector_2" d="M4.6464 25.08L6.9784 18.744H7.964L5.7728 25.08H4.6464ZM9.4248 25.08L7.2424 18.744H8.2808L10.604 25.08H9.4248ZM5.852 22.5896H9.3192V23.5048H5.852V22.5896ZM11.3995 25.08V18.744H12.5435V25.08H11.3995ZM11.9451 25.08V24.1736H15.9579V25.08H11.9451ZM11.9451 22.264V21.3752H15.6499V22.264H11.9451ZM11.9451 19.6504V18.744H15.8611V19.6504H11.9451ZM18.6859 25.08V19.6504H16.5827V18.744H21.9331V19.6504H19.8299V25.08H18.6859ZM22.726 25.08V18.744H23.87V25.08H22.726ZM26.8708 25.08V18.744H28.0148V25.08H26.8708ZM23.2716 21.3312H27.39V22.2288H23.2716V21.3312ZM29.1025 25.08V18.744H30.2465V25.08H29.1025ZM29.6481 25.08V24.1736H33.6609V25.08H29.6481ZM29.6481 22.264V21.3752H33.3529V22.264H29.6481ZM29.6481 19.6504V18.744H33.5641V19.6504H29.6481ZM34.4819 25.08V18.744H37.1571C37.6086 18.744 38.0019 18.8201 38.3363 18.9728C38.6707 19.1255 38.9259 19.3393 39.1019 19.6152C39.2836 19.8911 39.3747 20.2136 39.3747 20.5832C39.3747 20.9471 39.2836 21.2665 39.1019 21.5424C38.9259 21.8183 38.6707 22.0321 38.3363 22.1848C38.0019 22.3375 37.6086 22.4136 37.1571 22.4136H35.3795V21.5424H37.1219C37.4915 21.5424 37.7731 21.4575 37.9667 21.2872C38.166 21.1169 38.2659 20.8824 38.2659 20.5832C38.2659 20.284 38.1691 20.0552 37.9755 19.8968C37.7819 19.7327 37.4972 19.6504 37.1219 19.6504H35.6259V25.08H34.4819ZM38.1075 25.08L35.2827 21.8416H36.5675L39.6915 25.08H38.1075Z" fill="var(--fill-0, white)"/>
</g>
<defs>
<clipPath id="clip0_0_47">
<rect width="44" height="44" fill="white"/>
</clipPath>
</defs>
</svg>
