<svg preserveAspectRatio="none" width="100%" height="100%" overflow="visible" style="display: block;" viewBox="0 0 44 44" fill="none" xmlns="http://www.w3.org/2000/svg">
<g id="3UBhuourpwlCeqx03V6QWYkok.svg" clip-path="url(#clip0_0_56)">
<path id="Vector" d="M0 0H44V44H0V0Z" fill="var(--fill-0, #B50000)"/>
<path id="Vector_2" d="M9.3016 25.168C8.6328 25.168 8.05508 25.036 7.568 24.772C7.09184 24.5129 6.70069 24.1218 6.4416 23.6456C6.1776 23.1585 6.0456 22.5896 6.0456 21.9384C6.0456 21.2872 6.1776 20.7183 6.4416 20.2312C6.69309 19.7515 7.07422 19.3521 7.5416 19.0784C8.01108 18.7968 8.55668 18.656 9.1784 18.656C9.68308 18.656 10.1345 18.7497 10.5336 18.9376C10.9384 19.1193 11.264 19.3719 11.5104 19.6944C11.7625 20.0112 11.9152 20.3808 11.968 20.8032H10.824C10.7655 20.4279 10.5895 20.1313 10.296 19.9144C10.0025 19.6975 9.636 19.5888 9.196 19.5888C8.79692 19.5888 8.448 19.6825 8.1488 19.8704C7.8496 20.0583 7.61772 20.3249 7.4536 20.6712C7.28948 21.0175 7.2072 21.4311 7.2072 21.912C7.2072 22.4048 7.28948 22.8272 7.4536 23.1792C7.62388 23.5255 7.8672 23.7895 8.184 23.9712C8.50652 24.1529 8.89988 24.244 9.3632 24.244C9.72092 24.244 10.0289 24.2 10.2872 24.112C10.5455 24.0183 10.7536 23.8801 10.912 23.6984L12.012 24.1296C11.6832 24.4661 11.2875 24.7299 10.8504 24.904C10.4104 25.08 9.89428 25.168 9.3016 25.168ZM10.868 24.1296V22.2816L11.1408 22.5544H9.3544V21.6568H12.012V24.1296H10.868ZM12.9857 25.08V18.744H14.1297V25.08H12.9857ZM13.5313 25.08V24.1736H17.2449V25.08H13.5313ZM18.168 25.08V18.744H19.312V25.08H18.168ZM21.0976 25.08V24.1648H22.7344C23.2153 24.1648 23.6262 24.068 23.9664 23.8744C24.2997 23.6881 24.5694 23.4061 24.7408 23.0648C24.9225 22.7185 25.0136 22.3225 25.0136 21.8768C25.0136 21.4368 24.9225 21.0496 24.7408 20.7152C24.5679 20.3839 24.2976 20.1137 23.9664 19.9408C23.632 19.7529 23.2214 19.6592 22.7344 19.6592H21.1152V18.744H22.7344C23.4265 18.744 24.031 18.8729 24.5472 19.1312C25.0633 19.3895 25.4624 19.756 25.744 20.2312C26.0313 20.7007 26.1752 21.2551 26.1752 21.8944C26.1752 22.5337 26.0313 23.0943 25.744 23.5752C25.4566 24.0504 25.0545 24.42 24.5384 24.684C24.028 24.948 23.4296 25.08 22.7432 25.08H21.0976ZM20.4024 25.08V18.744H21.5464V25.08H20.4024ZM27.0455 25.08V18.744H28.1895V25.08H27.0455ZM27.5911 25.08V24.1736H31.6039V25.08H27.5911ZM27.5911 22.264V21.3752H31.2959V22.264H27.5911ZM27.5911 19.6504V18.744H31.5071V19.6504H27.5911ZM36.6032 25.08L34.7464 22.2464L32.344 18.744H33.6816L35.424 21.4192L37.9408 25.08H36.6032ZM34.9136 21.428L36.7264 18.744H37.9408L35.336 22.3696L34.9136 21.428ZM35.2128 22.4048L33.4 25.08H32.1856L34.7816 21.4632L35.2128 22.4048Z" fill="var(--fill-0, white)"/>
</g>
<defs>
<clipPath id="clip0_0_56">
<rect width="44" height="44" fill="white"/>
</clipPath>
</defs>
</svg>
