<svg preserveAspectRatio="none" width="100%" height="100%" overflow="visible" style="display: block;" viewBox="0 0 44 44" fill="none" xmlns="http://www.w3.org/2000/svg">
<g id="LLGE1p1zXKMIhiXJxukmJOqn94.svg" clip-path="url(#clip0_0_61)">
<path id="Vector" d="M0 0H44V44H0V0Z" fill="var(--fill-0, #C3F53C)"/>
<path id="Vector_2" d="M12.2848 20.5216C12.1449 20.2572 11.9306 20.0395 11.6684 19.8955C11.4066 19.752 11.1016 19.6808 10.7532 19.6808C10.3668 19.6808 10.0241 19.7679 9.72532 19.9421C9.42612 20.1164 9.19292 20.3654 9.0244 20.6897C8.85632 21.0135 8.77228 21.3871 8.77228 21.8104C8.77228 22.2464 8.85632 22.6261 9.0244 22.95C9.18796 23.2627 9.43758 23.5221 9.7438 23.6975C10.0492 23.8718 10.4038 23.9589 10.8086 23.9589C11.3071 23.9589 11.715 23.8282 12.0327 23.5668C12.3499 23.2989 12.5589 22.9284 12.6584 22.455H10.4166V21.4557H13.9476V22.5953C13.859 23.0528 13.6673 23.4841 13.387 23.8564C13.101 24.2422 12.7301 24.5538 12.2756 24.7905C11.8268 25.0206 11.3225 25.1359 10.762 25.1359C10.1328 25.1359 9.5634 24.996 9.05256 24.7157C8.55422 24.4354 8.14098 24.0255 7.85664 23.5294C7.57064 23.0248 7.4272 22.4519 7.4272 21.8104C7.4272 21.1688 7.57064 20.596 7.85708 20.0917C8.13776 19.593 8.5517 19.1823 9.05256 18.9055C9.56296 18.6186 10.1301 18.4756 10.7527 18.4756C11.4875 18.4756 12.126 18.656 12.6676 19.0172C13.2097 19.3723 13.5832 19.8735 13.7887 20.5212L12.2848 20.5216ZM15.6622 20.7082C15.8227 20.4417 16.0477 20.22 16.3165 20.0636C16.5902 19.9078 16.9017 19.8304 17.2506 19.8304V21.2032H16.9048C16.4938 21.2032 16.1823 21.3 15.9707 21.4927C15.7652 21.6863 15.6627 22.022 15.6627 22.5016V25.08H14.3546V19.9047H15.6622V20.7082ZM19.8686 25.164C19.3706 25.164 18.9226 25.0549 18.5236 24.8371C18.128 24.6159 17.8014 24.2893 17.5802 23.8938C17.3558 23.489 17.244 23.0217 17.244 22.4924C17.244 21.963 17.3593 21.4962 17.5894 21.0914C17.8163 20.6959 18.1498 20.3721 18.5517 20.1568C18.9565 19.9324 19.408 19.8207 19.9065 19.8207C20.4046 19.8207 20.856 19.9329 21.2608 20.1568C21.6614 20.3706 21.9921 20.6948 22.2138 21.091C22.4501 21.4958 22.5685 21.963 22.5685 22.4924C22.5685 23.0217 22.447 23.489 22.2042 23.8938C21.974 24.2922 21.6377 24.6188 21.2326 24.8371C20.8278 25.0549 20.3733 25.164 19.8686 25.164ZM19.8686 24.0244C20.1005 24.0257 20.3289 23.9679 20.5322 23.8564C20.7474 23.7343 20.9225 23.5524 21.0364 23.3328C21.1614 23.1026 21.2234 22.8224 21.2234 22.4924C21.2234 22.0004 21.0927 21.6238 20.8309 21.362C20.7109 21.2323 20.5648 21.1294 20.4022 21.0602C20.2396 20.991 20.0642 20.9569 19.8876 20.9603C19.5136 20.9603 19.1994 21.094 18.9442 21.362C18.6952 21.6238 18.5702 22 18.5702 22.4928C18.5702 22.9843 18.6921 23.364 18.935 23.6324C19.184 23.8938 19.4951 24.024 19.8691 24.024L19.8686 24.0244ZM30.1418 19.9047L28.6282 25.08H27.2184L26.2746 21.465L25.3308 25.08H23.9109L22.3885 19.9047H23.7147L24.6299 23.8471L25.6203 19.9047H27.0028L27.9748 23.8374L28.89 19.9047H30.1418ZM31.5968 18.1672V25.08H30.2887V18.1676L31.5968 18.1672ZM37.2794 19.9052L34.0754 27.5277H32.6832L33.8043 24.9493L31.7306 19.9047H33.1971L34.533 23.5202L35.8873 19.9047L37.2794 19.9052Z" fill="var(--fill-0, #002C15)"/>
</g>
<defs>
<clipPath id="clip0_0_61">
<rect width="44" height="44" fill="white"/>
</clipPath>
</defs>
</svg>
