<svg preserveAspectRatio="none" width="100%" height="100%" overflow="visible" style="display: block;" viewBox="0 0 44 44" fill="none" xmlns="http://www.w3.org/2000/svg">
<g id="qPDvMqjz7jsJRjTb3AzYMAxqtQA.svg" clip-path="url(#clip0_0_64)">
<path id="Vector" d="M0 0H44V44H0V0Z" fill="var(--fill-0, black)"/>
<path id="Vector_2" d="M6.98192 26.0929C6.42884 26.0929 5.92768 26.0005 5.47756 25.8161C5.03536 25.6243 4.68512 25.3444 4.42684 24.9757C4.169 24.607 4.02864 24.1534 4.00664 23.6152H5.77632C5.7838 23.8291 5.8388 24.017 5.9422 24.1793C6.0456 24.3417 6.18552 24.4706 6.3624 24.5665C6.53928 24.6545 6.74608 24.699 6.98192 24.699C7.1808 24.699 7.35416 24.6695 7.50156 24.611C7.65644 24.5445 7.77832 24.4521 7.86676 24.3338C7.9552 24.2088 7.9992 24.0539 7.9992 23.8696C7.9992 23.6777 7.94772 23.5158 7.84476 23.3829C7.73252 23.2353 7.58883 23.1144 7.42412 23.0292C7.22731 22.9169 7.01995 22.8242 6.80504 22.7524C6.57624 22.6644 6.3294 22.579 6.06408 22.4981C5.45204 22.2992 4.97992 22.0299 4.64816 21.6907C4.32388 21.3519 4.16152 20.8982 4.16152 20.3302C4.16152 19.8585 4.27592 19.4564 4.50472 19.1246C4.74056 18.7858 5.06088 18.5275 5.46656 18.3502C5.87224 18.1738 6.33336 18.0849 6.84904 18.0849C7.38012 18.0849 7.84828 18.1773 8.25396 18.3616C8.6592 18.5385 8.97996 18.8003 9.21624 19.147C9.45208 19.4858 9.57704 19.8915 9.592 20.3636H7.81132C7.80533 20.2056 7.75552 20.0524 7.66744 19.921C7.58357 19.7856 7.46529 19.675 7.32468 19.6002C7.18476 19.5193 7.01888 19.4788 6.82704 19.4788C6.66832 19.4696 6.50954 19.496 6.3624 19.5562C6.22996 19.6077 6.11908 19.6926 6.03064 19.8106C5.94968 19.921 5.9092 20.0614 5.9092 20.2308C5.9092 20.3931 5.94968 20.537 6.03064 20.662C6.11908 20.7799 6.23744 20.8833 6.38484 20.9717C6.53928 21.0527 6.7166 21.1301 6.91548 21.204C7.12228 21.278 7.34668 21.3514 7.59 21.4254C7.9619 21.5496 8.32122 21.7087 8.66316 21.9006C8.98318 22.0671 9.25683 22.3105 9.45956 22.609C9.66592 22.8963 9.76888 23.2795 9.76888 23.7591C9.76888 24.1793 9.65888 24.5665 9.43712 24.9207C9.22328 25.274 8.91 25.5583 8.49728 25.7721C8.0916 25.986 7.58648 26.0929 6.98192 26.0929ZM10.2485 25.96V18.2178H11.9073V25.96H10.2485ZM12.617 25.96V18.2178H17.8046V19.5562H14.2762V21.3809H17.4728V22.664H14.2762V24.622H17.8046V25.96H12.617ZM18.3454 25.96V18.2178H20.0042L23.3996 23.3055V18.2178H25.0584V25.96H23.3996L20.0042 20.8943V25.96H18.3454ZM25.769 25.96V18.2178H27.4278L30.8238 23.3055V18.2178H32.4826V25.96H30.8238L27.4278 20.8943V25.96H25.769ZM32.6726 25.96L35.493 18.2178H37.3956L40.216 25.96H38.4573L36.4333 20.0869L34.4093 25.96H32.6731H32.6726ZM33.9002 24.2678L34.3429 22.9847H38.4023L38.8335 24.2678H33.9002Z" fill="var(--fill-0, white)"/>
</g>
<defs>
<clipPath id="clip0_0_64">
<rect width="44" height="44" fill="white"/>
</clipPath>
</defs>
</svg>
