<svg preserveAspectRatio="xMidYMid meet" width="28" height="29" overflow="visible"  viewBox="0 0 28 29" fill="none" xmlns="http://www.w3.org/2000/svg">
<g id="svg9365522886" clip-path="url(#clip0_0_21)">
<path id="Vector" d="M17.972 8.9C16.858 8.156 15.548 7.76 14.209 7.76V0.986C21.69 0.986 27.754 7.05 27.754 14.531C27.754 22.011 21.69 28.076 14.21 28.076C6.729 28.076 0.665 22.013 0.664 14.532H7.437C7.437 17.763 9.72 20.545 12.889 21.175C16.058 21.805 19.231 20.109 20.468 17.123C21.704 14.138 20.659 10.695 17.972 8.9Z" fill="var(--fill-0, #707070)"/>
<path id="Vector_2" d="M7.437 0.987C7.437 2.783 6.723 4.506 5.453 5.776C4.183 7.046 2.46 7.759 0.664 7.759V14.532C4.257 14.532 7.702 13.105 10.242 10.565C12.783 8.025 14.21 4.58 14.21 0.987H7.437Z" fill="var(--fill-0, #707070)"/>
</g>
<defs>
<clipPath id="clip0_0_21">
<rect width="28" height="29" fill="white"/>
</clipPath>
</defs>
</svg>
