<svg preserveAspectRatio="xMidYMid meet" width="42" height="29" overflow="visible"  viewBox="0 0 42 29" fill="none" xmlns="http://www.w3.org/2000/svg">
<g id="svg12172246408" clip-path="url(#clip0_0_26)">
<path id="Vector" d="M38.829 1.833C38.829 2.301 39.208 2.68 39.675 2.68H40.522C40.831 2.691 41.122 2.532 41.28 2.265C41.438 1.999 41.438 1.668 41.28 1.402C41.122 1.135 40.831 0.976 40.522 0.987H39.675C39.208 0.988 38.83 1.366 38.829 1.833ZM14.279 28.076H18.391L17.194 26.879C16.877 26.561 16.446 26.383 15.997 26.383H14.279C7.733 26.383 2.427 21.077 2.427 14.532C2.427 7.986 7.733 2.68 14.279 2.68H27.823C34.369 2.68 39.675 7.986 39.675 14.532C39.675 21.077 34.369 26.383 27.824 26.383H22.757C22.084 26.383 21.437 26.116 20.961 25.64L19.558 24.237C18.764 23.443 17.688 22.997 16.565 22.997H14.28C9.605 22.997 5.815 19.207 5.815 14.532C5.815 9.857 9.605 6.067 14.28 6.067H27.824C32.499 6.067 36.289 9.857 36.289 14.532C36.289 19.207 32.499 22.997 27.824 22.997H24.57C23.896 22.997 23.25 22.729 22.774 22.253L21.372 20.851C20.578 20.057 19.502 19.611 18.379 19.611H14.279C11.501 19.572 9.27 17.309 9.27 14.531C9.27 11.754 11.501 9.491 14.279 9.452H27.823C30.595 9.471 32.839 11.709 32.868 14.48C32.896 17.252 30.697 19.535 27.926 19.61H26.686C26.013 19.61 25.367 19.343 24.891 18.867L23.488 17.465C22.841 16.817 22.001 16.397 21.094 16.267L21.051 16.225H14.28C13.345 16.225 12.586 15.467 12.586 14.531C12.586 13.596 13.345 12.838 14.28 12.838H27.824C28.759 12.838 29.517 13.596 29.517 14.531C29.517 15.467 28.759 16.225 27.824 16.225H24.438L25.635 17.422C25.953 17.739 26.384 17.918 26.833 17.918H27.824C29.694 17.918 31.21 16.402 31.211 14.531C31.211 12.661 29.694 11.145 27.824 11.145H14.28C12.41 11.145 10.893 12.661 10.893 14.531C10.893 16.402 12.41 17.918 14.28 17.918H20.496C21.17 17.918 21.816 18.185 22.292 18.662L23.694 20.064C24.488 20.858 25.564 21.304 26.687 21.304H28.247V21.291C31.893 21.056 34.696 17.972 34.582 14.321C34.468 10.669 31.478 7.766 27.825 7.759H14.278C10.538 7.759 7.506 10.791 7.506 14.531C7.506 18.272 10.538 21.304 14.278 21.304H18.378C19.051 21.304 19.698 21.572 20.173 22.048L21.576 23.451C22.37 24.245 23.446 24.691 24.569 24.691H27.822C33.433 24.691 37.982 20.142 37.982 14.531C37.982 8.921 33.433 4.373 27.822 4.373H14.28C8.67 4.373 4.121 8.921 4.121 14.532C4.121 20.142 8.669 24.69 14.28 24.69H16.566C17.24 24.69 17.886 24.958 18.362 25.434L19.765 26.837C20.559 27.631 21.635 28.077 22.758 28.077H27.824C35.305 28.077 41.369 22.012 41.369 14.532C41.368 7.05 35.304 0.987 27.823 0.987H14.28C6.799 0.987 0.734 7.05 0.734 14.532C0.734 22.012 6.798 28.076 14.279 28.076Z" fill="var(--fill-0, #707070)"/>
</g>
<defs>
<clipPath id="clip0_0_26">
<rect width="42" height="29" fill="white"/>
</clipPath>
</defs>
</svg>
