<svg preserveAspectRatio="xMidYMid meet" width="36" height="35" overflow="visible"  viewBox="0 0 36 35" fill="none" xmlns="http://www.w3.org/2000/svg">
<g id="svg12600469402" clip-path="url(#clip0_0_17)">
<path id="Vector" d="M19.429 28.523C19.463 25.052 18.583 22.229 17.463 22.218C16.343 22.208 15.409 25.012 15.375 28.483C15.341 31.954 16.221 34.777 17.34 34.788C18.46 34.798 19.395 31.994 19.429 28.523ZM12.936 27.735C14.842 24.833 15.628 21.983 14.692 21.368C13.756 20.754 11.453 22.608 9.548 25.51C7.643 28.411 6.857 31.261 7.792 31.876C8.728 32.49 11.032 30.636 12.936 27.735ZM7.893 23.572C11.065 22.161 13.267 20.188 12.813 19.165C12.357 18.142 9.417 18.457 6.246 19.868C3.074 21.278 0.872 23.251 1.327 24.274C1.782 25.297 4.722 24.982 7.893 23.571V23.572ZM12.432 16.297C12.602 15.19 9.959 13.865 6.528 13.337C3.098 12.809 0.178 13.278 0.008 14.385C-0.162 15.491 2.481 16.816 5.911 17.345C9.342 17.872 12.261 17.403 12.431 16.297H12.432ZM13.663 13.661C14.405 12.822 12.897 10.279 10.296 7.981C7.696 5.681 4.986 4.498 4.245 5.337C3.503 6.176 5.011 8.719 7.612 11.017C10.212 13.317 12.922 14.5 13.663 13.661ZM16.116 12.12C17.194 11.816 17.3 8.861 16.356 5.521C15.41 2.181 13.771 -0.279 12.694 0.026C11.617 0.33 11.51 3.285 12.454 6.626C13.4 9.965 15.039 12.426 16.116 12.121V12.12ZM22.777 6.729C23.788 3.409 23.739 0.452 22.669 0.126C21.598 -0.2 19.91 2.228 18.899 5.548C17.889 8.869 17.937 11.825 19.009 12.151C20.079 12.477 21.767 10.05 22.777 6.729ZM27.537 11.216C30.182 8.969 31.739 6.455 31.014 5.602C30.29 4.749 27.558 5.879 24.912 8.126C22.267 10.374 20.71 12.887 21.435 13.741C22.16 14.594 24.892 13.463 27.537 11.216ZM29.11 17.566C32.551 17.106 35.22 15.833 35.071 14.723C34.923 13.613 32.014 13.087 28.573 13.547C25.133 14.007 22.463 15.28 22.613 16.39C22.761 17.5 25.67 18.026 29.111 17.565L29.11 17.566ZM33.549 24.591C34.024 23.578 31.861 21.561 28.718 20.089C25.575 18.616 22.642 18.243 22.167 19.257C21.692 20.271 23.855 22.287 26.997 23.76C30.141 25.233 33.074 25.605 33.549 24.591ZM26.938 32.07C27.885 31.474 27.156 28.61 25.308 25.67C23.46 22.732 21.194 20.833 20.247 21.429C19.299 22.025 20.029 24.89 21.877 27.829C23.724 30.767 25.991 32.666 26.938 32.07Z" fill="var(--fill-0, #707070)"/>
</g>
<defs>
<clipPath id="clip0_0_17">
<rect width="36" height="35" fill="white"/>
</clipPath>
</defs>
</svg>
