<svg preserveAspectRatio="xMidYMid meet" width="28" height="28" overflow="visible"  viewBox="0 0 28 28" fill="none" xmlns="http://www.w3.org/2000/svg">
<g id="svg9260775214" clip-path="url(#clip0_0_19)">
<path id="Vector" d="M5.888 3.139C4.923 3.814 4.049 4.611 3.29 5.511C6.388 5.224 10.323 5.693 14.893 7.978C19.772 10.418 23.701 10.5 26.435 9.973C26.189 9.227 25.878 8.504 25.505 7.813C22.375 8.143 18.362 7.706 13.685 5.368C10.715 3.883 8.098 3.271 5.888 3.139ZM23.678 5.21C21.119 2.343 17.457 0.705 13.614 0.71C12.44 0.71 11.3 0.86 10.214 1.142C11.685 1.543 13.248 2.131 14.892 2.953C18.316 4.665 21.272 5.216 23.676 5.21H23.678ZM27.021 12.61C23.717 13.262 19.156 13.128 13.686 10.393C8.572 7.836 4.503 7.868 1.758 8.478C1.616 8.51 1.478 8.543 1.343 8.578C0.983 9.358 0.696 10.181 0.491 11.034C0.711 10.975 0.938 10.92 1.171 10.868C4.502 10.128 9.207 10.16 14.893 13.003C20.007 15.56 24.077 15.527 26.822 14.918L27.1 14.853C27.135 14.104 27.108 13.354 27.02 12.609L27.021 12.61ZM26.659 17.702C23.388 18.274 18.959 18.054 13.686 15.418C8.572 12.861 4.503 12.893 1.758 13.503C1.148 13.639 0.6 13.803 0.117 13.978C0.116 14.055 0.115 14.133 0.115 14.21C0.115 21.666 6.159 27.71 13.615 27.71C19.863 27.71 25.12 23.465 26.659 17.702Z" fill="var(--fill-0, #707070)"/>
</g>
<defs>
<clipPath id="clip0_0_19">
<rect width="28" height="28" fill="white"/>
</clipPath>
</defs>
</svg>
