<svg preserveAspectRatio="xMidYMid meet" width="28" height="29" overflow="visible"  viewBox="0 0 28 29" fill="none" xmlns="http://www.w3.org/2000/svg">
<g id="svg12484310062" clip-path="url(#clip0_0_12)">
<path id="Vector" d="M13.538 0.987C21.018 0.987 27.083 7.051 27.083 14.532V24.013C27.082 26.257 25.263 28.076 23.019 28.076H14.215V22.134C14.215 20.779 14.298 19.374 15.009 18.22C16.039 16.546 17.745 15.403 19.684 15.086L19.944 15.044C20.164 14.97 20.312 14.764 20.312 14.531C20.312 14.299 20.164 14.093 19.944 14.019L19.684 13.977C16.812 13.508 14.561 11.257 14.092 8.385L14.05 8.125C13.975 7.906 13.769 7.759 13.537 7.759C13.306 7.759 13.1 7.906 13.025 8.125L12.983 8.385C12.667 10.324 11.523 12.031 9.85 13.061C8.696 13.771 7.291 13.854 5.935 13.854H0.01C0.363 6.69 6.285 0.987 13.538 0.987Z" fill="var(--fill-0, #707070)"/>
<path id="Vector_2" d="M0.01 15.209H5.95C7.306 15.209 8.71 15.291 9.865 16.003C10.767 16.559 11.526 17.318 12.082 18.22C12.793 19.374 12.876 20.779 12.876 22.134V28.076H4.073C1.829 28.076 0.01 26.257 0.009 24.013V15.209H0.01ZM27.098 2.34C27.098 3.088 26.491 3.695 25.743 3.695C24.995 3.695 24.388 3.088 24.388 2.34C24.388 1.592 24.995 0.985 25.743 0.985C26.491 0.985 27.098 1.592 27.098 2.34Z" fill="var(--fill-0, #707070)"/>
</g>
<defs>
<clipPath id="clip0_0_12">
<rect width="28" height="29" fill="white"/>
</clipPath>
</defs>
</svg>
