<svg preserveAspectRatio="xMidYMid meet" width="28" height="28" overflow="visible"  viewBox="0 0 28 28" fill="none" xmlns="http://www.w3.org/2000/svg">
<g id="svg11076841505" clip-path="url(#clip0_0_15)">
<path id="Vector" d="M27.115 15.51H22.276C18.049 15.51 14.623 18.936 14.623 23.163V28C21.294 27.506 26.62 22.18 27.115 15.509V15.51ZM12.592 28.001V23.163C12.592 18.936 9.166 15.51 4.939 15.51H0.1C0.595 22.18 5.92 27.507 12.592 28.001ZM27.115 13.478C26.62 6.808 21.294 1.481 14.623 0.987V5.825C14.623 10.052 18.049 13.478 22.276 13.478H27.115ZM12.592 0.987C5.92 1.48 0.595 6.807 0.1 13.478H4.94C9.167 13.478 12.593 10.052 12.593 5.825V0.987H12.592ZM9.261 14.494C11.142 13.553 12.667 12.028 13.608 10.148C14.549 12.028 16.073 13.553 17.953 14.494C16.073 15.435 14.549 16.96 13.608 18.84C12.667 16.959 11.142 15.435 9.261 14.494Z" fill="var(--fill-0, #707070)"/>
</g>
<defs>
<clipPath id="clip0_0_15">
<rect width="28" height="28" fill="white"/>
</clipPath>
</defs>
</svg>
