<svg preserveAspectRatio="xMidYMid meet" width="28" height="28" overflow="visible"  viewBox="0 0 28 28" fill="none" xmlns="http://www.w3.org/2000/svg">
<g id="svg12239484116" clip-path="url(#clip0_0_24)">
<path id="Vector" d="M9.372 0.71C7.849 0.71 6.389 1.315 5.312 2.392L0.114 7.59V9.969C0.114 11.649 0.836 13.161 1.986 14.211C0.792 15.298 0.112 16.839 0.114 18.454V20.833L5.31 26.03C6.419 27.139 7.934 27.747 9.503 27.71C11.071 27.674 12.557 26.998 13.614 25.839C14.671 26.998 16.157 27.674 17.725 27.709C19.293 27.745 20.808 27.138 21.917 26.029L27.114 20.833V18.454C27.116 16.839 26.435 15.298 25.241 14.211C26.435 13.124 27.116 11.584 27.114 9.969V7.589L21.917 2.392C20.808 1.283 19.293 0.675 17.725 0.711C16.157 0.747 14.671 1.423 13.614 2.582C12.527 1.388 10.987 0.708 9.372 0.71ZM17.502 14.21C17.437 14.151 17.374 14.09 17.312 14.028L13.615 10.332L9.918 14.028C9.856 14.09 9.793 14.151 9.728 14.21C9.792 14.27 9.856 14.33 9.918 14.392L13.615 18.089L17.311 14.392C17.374 14.33 17.437 14.27 17.501 14.21H17.502ZM15.115 20.832V21.968C15.115 23.077 15.783 24.077 16.808 24.502C17.833 24.927 19.012 24.692 19.797 23.908L24.115 19.589V18.453C24.115 17.344 23.447 16.344 22.422 15.919C21.397 15.494 20.218 15.729 19.433 16.513L15.115 20.832ZM12.115 20.832L7.797 16.514C7.012 15.73 5.833 15.495 4.808 15.92C3.783 16.345 3.115 17.345 3.115 18.454V19.589L7.433 23.907C8.218 24.691 9.397 24.926 10.422 24.501C11.447 24.076 12.115 23.076 12.115 21.967V20.832ZM12.115 6.453V7.59L7.797 11.908C7.013 12.693 5.833 12.928 4.807 12.503C3.782 12.079 3.114 11.078 3.115 9.968V8.833L7.433 4.515C8.218 3.731 9.397 3.496 10.422 3.921C11.447 4.346 12.115 5.346 12.115 6.455V6.453ZM19.433 11.907L15.115 7.59V6.453C15.115 5.344 15.783 4.344 16.808 3.919C17.833 3.494 19.012 3.729 19.797 4.513L24.115 8.832V9.968C24.115 11.077 23.447 12.077 22.422 12.502C21.397 12.927 20.218 12.692 19.433 11.908V11.907Z" fill="var(--fill-0, #707070)"/>
</g>
<defs>
<clipPath id="clip0_0_24">
<rect width="28" height="28" fill="white"/>
</clipPath>
</defs>
</svg>
