<svg preserveAspectRatio="xMidYMid meet" width="54" height="21" overflow="visible"  viewBox="0 0 54 21" fill="none" xmlns="http://www.w3.org/2000/svg">
<g id="svg11917474590" clip-path="url(#clip0_0_9)">
<path id="Vector" d="M13.17 0.373C11.107 0.373 9.129 1.193 7.67 2.651L2.91 7.411C-0.128 10.449 -0.128 15.374 2.909 18.412C5.947 21.449 10.872 21.45 13.91 18.412L17.202 15.119L26.797 5.525C27.71 4.611 29.033 4.237 30.29 4.538C31.546 4.838 32.556 5.771 32.957 6.999L35.984 3.971C34.717 1.982 32.615 0.675 30.271 0.419C27.926 0.162 25.592 0.983 23.924 2.651L11.036 15.54C9.585 16.991 7.233 16.991 5.782 15.54C4.331 14.089 4.331 11.737 5.782 10.286L10.543 5.526C11.456 4.612 12.779 4.238 14.036 4.539C15.292 4.839 16.302 5.772 16.703 7L19.731 3.972C18.304 1.729 15.829 0.372 13.17 0.373Z" fill="var(--fill-0, #707070)"/>
<path id="Vector_2" d="M27.29 15.539C26.377 16.453 25.054 16.827 23.797 16.526C22.541 16.226 21.531 15.293 21.13 14.065L18.102 17.093C19.369 19.082 21.471 20.389 23.815 20.645C26.16 20.902 28.494 20.081 30.162 18.413L43.052 5.524C43.985 4.558 45.366 4.171 46.665 4.511C47.964 4.851 48.978 5.865 49.318 7.164C49.658 8.463 49.271 9.844 48.305 10.777L43.545 15.537C42.632 16.451 41.309 16.825 40.052 16.524C38.796 16.224 37.786 15.291 37.385 14.063L34.357 17.091C35.624 19.08 37.726 20.387 40.07 20.643C42.415 20.9 44.749 20.079 46.417 18.411L51.178 13.651C54.216 10.613 54.216 5.689 51.178 2.651C48.14 -0.387 43.216 -0.387 40.178 2.651L27.29 15.539Z" fill="var(--fill-0, #707070)"/>
</g>
<defs>
<clipPath id="clip0_0_9">
<rect width="54" height="21" fill="white"/>
</clipPath>
</defs>
</svg>
