<svg preserveAspectRatio="none" width="100%" height="100%" overflow="visible" style="display: block;" viewBox="0 0 24 24" fill="none" xmlns="http://www.w3.org/2000/svg">
<g id="svg62680087_598">
<path id="Vector" d="M12 22C9.68333 21.4167 7.77067 20.0873 6.262 18.012C4.75333 15.9367 3.99933 13.6327 4 11.1V5L12 2L20 5V11.1C20 13.6333 19.246 15.9377 17.738 18.013C16.23 20.0883 14.3173 21.4173 12 22ZM12 19.9C13.7333 19.35 15.1667 18.25 16.3 16.6C17.4333 14.95 18 13.1167 18 11.1V6.375L12 4.125L6 6.375V11.1C6 13.1167 6.56667 14.95 7.7 16.6C8.83333 18.25 10.2667 19.35 12 19.9ZM12 17C12.2833 17 12.5293 16.896 12.738 16.688C12.9467 16.48 13.0507 16.234 13.05 15.95C13.0493 15.666 12.9453 15.4203 12.738 15.213C12.5307 15.0057 12.2847 14.9013 12 14.9C11.7153 14.8987 11.4697 15.003 11.263 15.213C11.0563 15.423 10.952 15.6687 10.95 15.95C10.948 16.2313 11.0523 16.4773 11.263 16.688C11.4737 16.8987 11.7193 17.0027 12 17ZM11.275 13.8H12.775V13.25C12.775 13.0667 12.8167 12.8917 12.9 12.725C13 12.4917 13.1333 12.296 13.3 12.138C13.4667 11.98 13.6417 11.8173 13.825 11.65C14.1083 11.3667 14.3543 11.05 14.563 10.7C14.7717 10.35 14.8757 9.96667 14.875 9.55C14.875 8.8 14.5877 8.18733 14.013 7.712C13.4383 7.23667 12.7673 6.99933 12 7C11.3333 7 10.7377 7.19167 10.213 7.575C9.68833 7.95833 9.334 8.46667 9.15 9.1L10.5 9.65C10.6 9.31667 10.7877 9.03333 11.063 8.8C11.3383 8.56667 11.6507 8.45 12 8.45C12.3667 8.45 12.6877 8.55833 12.963 8.775C13.2383 8.99167 13.3757 9.26667 13.375 9.6C13.375 9.88333 13.2877 10.146 13.113 10.388C12.9383 10.63 12.7423 10.8507 12.525 11.05C12.325 11.2333 12.125 11.421 11.925 11.613C11.725 11.805 11.5667 12.0257 11.45 12.275C11.3333 12.5083 11.275 12.7543 11.275 13.013V13.8Z" fill="var(--fill-0, black)"/>
</g>
</svg>
