<svg preserveAspectRatio="none" width="100%" height="100%" overflow="visible" style="display: block;" viewBox="0 0 24 24" fill="none" xmlns="http://www.w3.org/2000/svg">
<g id="svg1867067241_591">
<path id="Vector" d="M7 6V5C7 4.45 7.196 3.97933 7.588 3.588C7.98 3.19667 8.45067 3.00067 9 3H15C15.55 3 16.021 3.196 16.413 3.588C16.805 3.98 17.0007 4.45067 17 5V6H17.7C18.0833 6 18.4417 6.10833 18.775 6.325C19.1083 6.54167 19.35 6.83333 19.5 7.2L21.85 12.6C21.9 12.7333 21.9377 12.8667 21.963 13C21.9883 13.1333 22.0007 13.2667 22 13.4V18C22 18.55 21.8043 19.021 21.413 19.413C21.0217 19.805 20.5507 20.0007 20 20H4C3.45 20 2.97933 19.8043 2.588 19.413C2.19667 19.0217 2.00067 18.5507 2 18V13.4C2 13.2667 2.01267 13.1333 2.038 13C2.06333 12.8667 2.10067 12.7333 2.15 12.6L4.5 7.2C4.65 6.83333 4.89167 6.54167 5.225 6.325C5.55833 6.10833 5.91667 6 6.3 6H7ZM9 6H15V5H9V6ZM7 12V11.975C7 11.6917 7.096 11.4543 7.288 11.263C7.48 11.0717 7.71733 10.9753 8 10.974C8.28267 10.9727 8.52033 11.0687 8.713 11.262C8.90567 11.4553 9.00133 11.6927 9 11.974V12H15V11.975C15 11.6917 15.096 11.4543 15.288 11.263C15.48 11.0717 15.7173 10.9757 16 10.975C16.2827 10.9743 16.5203 11.0703 16.713 11.263C16.9057 11.4557 17.0013 11.693 17 11.975V12H19.4L17.7 8H6.3L4.6 12H7ZM7 14H4V18H20V14H17V14.025C17 14.3083 16.904 14.546 16.712 14.738C16.52 14.93 16.2827 15.0257 16 15.025C15.7173 15.0243 15.48 14.9283 15.288 14.737C15.096 14.5457 15 14.3083 15 14.025V14H9V14.025C9 14.3083 8.904 14.546 8.712 14.738C8.52 14.93 8.28267 15.0257 8 15.025C7.71733 15.0243 7.48 14.9283 7.288 14.737C7.096 14.5457 7 14.3087 7 14.026V14Z" fill="var(--fill-0, black)"/>
</g>
</svg>
