<svg preserveAspectRatio="none" width="100%" height="100%" overflow="visible" style="display: block;" viewBox="0 0 30 30" fill="none" xmlns="http://www.w3.org/2000/svg">
<g id="svg2514842_536">
<path id="Vector" d="M10 17.5C9.64583 17.5 9.34917 17.38 9.11 17.14C8.87083 16.9 8.75083 16.6033 8.75 16.25C8.74917 15.8967 8.86917 15.6 9.11 15.36C9.35083 15.12 9.6475 15 10 15C10.3525 15 10.6496 15.12 10.8913 15.36C11.1329 15.6 11.2525 15.8967 11.25 16.25C11.2475 16.6033 11.1275 16.9004 10.89 17.1413C10.6525 17.3821 10.3558 17.5017 10 17.5ZM15 17.5C14.6458 17.5 14.3492 17.38 14.11 17.14C13.8708 16.9 13.7508 16.6033 13.75 16.25C13.7492 15.8967 13.8692 15.6 14.11 15.36C14.3508 15.12 14.6475 15 15 15C15.3525 15 15.6496 15.12 15.8913 15.36C16.1329 15.6 16.2525 15.8967 16.25 16.25C16.2475 16.6033 16.1275 16.9004 15.89 17.1413C15.6525 17.3821 15.3558 17.5017 15 17.5ZM20 17.5C19.6458 17.5 19.3492 17.38 19.11 17.14C18.8708 16.9 18.7508 16.6033 18.75 16.25C18.7492 15.8967 18.8692 15.6 19.11 15.36C19.3508 15.12 19.6475 15 20 15C20.3525 15 20.6496 15.12 20.8912 15.36C21.1329 15.6 21.2525 15.8967 21.25 16.25C21.2475 16.6033 21.1275 16.9004 20.89 17.1413C20.6525 17.3821 20.3558 17.5017 20 17.5ZM6.25 27.5C5.5625 27.5 4.97417 27.2554 4.485 26.7663C3.99583 26.2771 3.75083 25.6883 3.75 25V7.5C3.75 6.8125 3.995 6.22417 4.485 5.735C4.975 5.24583 5.56333 5.00083 6.25 5H7.5V3.75C7.5 3.39583 7.62 3.09917 7.86 2.86C8.1 2.62083 8.39667 2.50083 8.75 2.5C9.10333 2.49917 9.40042 2.61917 9.64125 2.86C9.88208 3.10083 10.0017 3.3975 10 3.75V5H20V3.75C20 3.39583 20.12 3.09917 20.36 2.86C20.6 2.62083 20.8967 2.50083 21.25 2.5C21.6033 2.49917 21.9004 2.61917 22.1412 2.86C22.3821 3.10083 22.5017 3.3975 22.5 3.75V5H23.75C24.4375 5 25.0263 5.245 25.5163 5.735C26.0063 6.225 26.2508 6.81333 26.25 7.5V25C26.25 25.6875 26.0054 26.2763 25.5163 26.7663C25.0271 27.2563 24.4383 27.5008 23.75 27.5H6.25ZM6.25 25H23.75V12.5H6.25V25ZM6.25 10H23.75V7.5H6.25V10Z" fill="var(--fill-0, black)"/>
</g>
</svg>
