<svg preserveAspectRatio="none" width="100%" height="100%" overflow="visible" style="display: block;" viewBox="0 0 30 30" fill="none" xmlns="http://www.w3.org/2000/svg">
<g id="svg-892984535_444">
<path id="Vector" d="M11 13.6875L13.6875 10.9687L11.9375 9.1875L10.5625 10.5625L8.8125 8.8125L10.1562 7.4375L8.75 6.03125L6.03125 8.75L11 13.6875ZM21.25 23.9687L23.9687 21.25L22.5625 19.8438L21.1875 21.1875L19.4375 19.4375L20.7812 18.0625L19 16.3125L16.3125 19L21.25 23.9687ZM9.0625 26.25H3.75V20.9375L9.21875 15.4688L2.5 8.75L8.75 2.5L15.5 9.25L22.0312 2.6875L27.2813 8L20.7812 14.5312L27.5 21.25L21.25 27.5L14.5312 20.7812L9.0625 26.25ZM6.25 23.75H8L20.25 11.5313L18.4687 9.75L6.25 22V23.75ZM19.375 10.6562L18.4687 9.75L20.25 11.5313L19.375 10.6562Z" fill="var(--fill-0, black)"/>
</g>
</svg>
