<svg preserveAspectRatio="none" width="100%" height="100%" overflow="visible" style="display: block;" viewBox="0 0 30 30" fill="none" xmlns="http://www.w3.org/2000/svg">
<g id="svg-2004551814_437">
<path id="Vector" d="M17.5 8.75V6.25H27.5V8.75H17.5ZM17.5 13.75V11.25H27.5V13.75H17.5ZM17.5 18.75V16.25H27.5V18.75H17.5ZM10 17.5C8.95833 17.5 8.07292 17.1354 7.34375 16.4062C6.61458 15.6771 6.25 14.7917 6.25 13.75C6.25 12.7083 6.61458 11.8229 7.34375 11.0938C8.07292 10.3646 8.95833 10 10 10C11.0417 10 11.9271 10.3646 12.6562 11.0938C13.3854 11.8229 13.75 12.7083 13.75 13.75C13.75 14.7917 13.3854 15.6771 12.6562 16.4062C11.9271 17.1354 11.0417 17.5 10 17.5ZM2.5 25V22.625C2.5 22.1875 2.60417 21.7708 2.8125 21.375C3.02083 20.9792 3.3125 20.6667 3.6875 20.4375C4.625 19.875 5.62 19.4533 6.6725 19.1725C7.725 18.8917 8.83417 18.7508 10 18.75C11.1658 18.7492 12.2754 18.89 13.3288 19.1725C14.3821 19.455 15.3767 19.8767 16.3125 20.4375C16.6875 20.6667 16.9792 20.9792 17.1875 21.375C17.3958 21.7708 17.5 22.1875 17.5 22.625V25H2.5ZM5.1875 22.5H14.8125C14.0833 22.0833 13.3125 21.7708 12.5 21.5625C11.6875 21.3542 10.8542 21.25 10 21.25C9.14583 21.25 8.3125 21.3542 7.5 21.5625C6.6875 21.7708 5.91667 22.0833 5.1875 22.5ZM10 15C10.3542 15 10.6513 14.88 10.8913 14.64C11.1313 14.4 11.2508 14.1033 11.25 13.75C11.2492 13.3967 11.1292 13.1 10.89 12.86C10.6508 12.62 10.3542 12.5 10 12.5C9.64583 12.5 9.34917 12.62 9.11 12.86C8.87083 13.1 8.75083 13.3967 8.75 13.75C8.74917 14.1033 8.86917 14.4004 9.11 14.6413C9.35083 14.8821 9.6475 15.0017 10 15Z" fill="var(--fill-0, black)"/>
</g>
</svg>
