<svg preserveAspectRatio="none" width="100%" height="100%" overflow="visible" style="display: block;" viewBox="0 0 16 16" fill="none" xmlns="http://www.w3.org/2000/svg">
<g id="svg1652658453_241">
<path id="Vector" d="M4.62667 3.33333C4.62649 3.68696 4.48584 4.02602 4.23567 4.27595C3.9855 4.52587 3.64629 4.66618 3.29267 4.666C2.93904 4.66582 2.59998 4.52518 2.35005 4.275C2.10013 4.02483 1.95982 3.68562 1.96 3.332C1.96018 2.97838 2.10082 2.63931 2.351 2.38939C2.60117 2.13946 2.94038 1.99916 3.294 1.99933C3.64762 1.99951 3.98669 2.14016 4.23661 2.39033C4.48654 2.6405 4.62684 2.97971 4.62667 3.33333ZM4.66667 5.65333H2V14H4.66667V5.65333ZM8.88 5.65333H6.22667V14H8.85333V9.62C8.85333 7.18 12.0333 6.95333 12.0333 9.62V14H14.6667V8.71333C14.6667 4.6 9.96 4.75333 8.85333 6.77333L8.88 5.65333Z" fill="var(--fill-0, black)"/>
</g>
</svg>
